#!OML:ASF F:\VICON\USERDATA\INSTALL\rory3\rory3.ASF
:FULLY-SPECIFIED
:DEGREES
257
root -0.137428 17.9308 -0.403792 2.78897 -10.3542 2.5887
lowerback -0.872744 -1.75706 -4.70312
upperback -1.93572 -2.32201 2.98768
thorax -1.19656 -1.08287 5.73565
lowerneck -33.1565 -0.934897 -8.18756
upperneck 1.98492 1.13847 6.55808
head 5.43673 1.01835 3.63498
rclavicle 2.43387e-014 -9.54166e-015
rhumerus -33.2698 -0.987692 -79.5315
rradius 29.3684
rwrist 20.2834
rhand -18.208 8.40989
rfingers 7.12502
rthumb 8.06959 -21.416
lclavicle 2.43387e-014 -9.54166e-015
lhumerus 56.9171 9.81061 48.9816
lradius 99.2511
lwrist -17.8158
lhand -47.2426 21.0159
lfingers 7.12502
lthumb -19.9405 50.0128
rfemur -7.90747 8.66927 13.7341
rtibia 26.5669
rfoot -18.2905 -2.69079
rtoes 4.27329
lfemur 3.23257 -2.15652 -23.3021
ltibia 8.50284
lfoot -9.98259 6.34517
ltoes -12.6429
258
root -0.138648 17.9307 -0.402993 2.79055 -10.3744 2.61816
lowerback -0.889832 -1.74755 -4.72007
upperback -1.91344 -2.30872 2.9642
thorax -1.16601 -1.07758 5.71967
lowerneck -33.1732 -0.962351 -8.24762
upperneck 1.90585 1.12068 6.63468
head 5.41374 1.01695 3.66764
rclavicle -3.99433e-014 -2.38542e-015
rhumerus -33.2427 -1.02833 -79.5395
rradius 29.4079
rwrist 20.3372
rhand -18.2167 8.61138
rfingers 7.12502
rthumb 8.06119 -21.2149
lclavicle -3.99433e-014 -2.38542e-015
lhumerus 56.983 9.85729 48.9753
lradius 99.2244
lwrist -17.8113
lhand -47.4509 20.914
lfingers 7.12502
lthumb -20.1407 49.8899
rfemur -7.91266 8.69216 13.7045
rtibia 26.5707
rfoot -18.2897 -2.67225
rtoes 4.33075
lfemur 3.20415 -2.1377 -23.331
ltibia 8.56434
lfoot -10.0408 6.36745
ltoes -12.8375
259
root -0.139164 17.9309 -0.401033 2.79963 -10.4007 2.61463
lowerback -0.907968 -1.72675 -4.69776
upperback -1.92398 -2.28049 2.93084
thorax -1.17256 -1.0634 5.67182
lowerneck -33.1098 -0.968641 -8.18058
upperneck 1.83739 1.08826 6.59245
head 5.38594 0.998015 3.63688
rclavicle -1.00883e-014 -1.74931e-014
rhumerus -33.279 -1.07723 -79.5634
rradius 29.4537
rwrist 20.4189
rhand -18.0538 8.51245
rfingers 7.12502
rthumb 8.21842 -21.3077
lclavicle -1.00883e-014 -1.74931e-014
lhumerus 57.0097 9.81048 48.9215
lradius 99.1961
lwrist -17.5927
lhand -47.6936 20.5057
lfingers 7.12502
lthumb -20.374 49.4569
rfemur -7.91802 8.70359 13.7052
rtibia 26.5675
rfoot -18.2406 -2.67811
rtoes 4.33764
lfemur 3.17758 -2.11151 -23.3261
ltibia 8.62451
lfoot -10.0927 6.3785
ltoes -12.7452
260
root -0.140443 17.9307 -0.399477 2.76811 -10.4039 2.62431
lowerback -0.861044 -1.7286 -4.72027
upperback -1.9405 -2.28496 2.91556
thorax -1.2152 -1.06372 5.67061
lowerneck -33.1339 -0.968795 -8.10587
upperneck 1.89786 1.06561 6.53707
head 5.41101 0.982716 3.60443
rclavicle 4.68138e-014 -7.15625e-015
rhumerus -33.3257 -1.07892 -79.5558
rradius 29.483
rwrist 20.4501
rhand -17.7784 8.50552
rfingers 7.12502
rthumb 8.48418 -21.3041
lclavicle 4.68138e-014 -7.15625e-015
lhumerus 56.994 9.80029 48.8515
lradius 99.1914
lwrist -17.4028
lhand -47.7738 20.4788
lfingers 7.12502
lthumb -20.451 49.4218
rfemur -7.87386 8.73113 13.7063
rtibia 26.5558
rfoot -18.2642 -2.69403
rtoes 4.28078
lfemur 3.18372 -2.10656 -23.3358
ltibia 8.69204
lfoot -10.1413 6.38498
ltoes -12.9409
261
root -0.141165 17.932 -0.398011 2.80314 -10.3902 2.57256
lowerback -0.89113 -1.73788 -4.65653
upperback -1.94582 -2.29612 2.92203
thorax -1.20431 -1.07033 5.64002
lowerneck -33.3121 -0.973464 -8.09227
upperneck 2.09126 1.06106 6.5538
head 5.49791 0.983117 3.61233
rclavicle 4.21051e-014 -3.18055e-015
rhumerus -33.3326 -1.09778 -79.5412
rradius 29.5088
rwrist 20.4518
rhand -17.7146 8.41253
rfingers 7.12502
rthumb 8.54579 -21.3945
lclavicle 4.21051e-014 -3.18055e-015
lhumerus 57.0325 9.84024 48.8408
lradius 99.2089
lwrist -17.3456
lhand -47.6886 20.4019
lfingers 7.12502
lthumb -20.3692 49.3536
rfemur -7.88769 8.74083 13.7656
rtibia 26.5413
rfoot -18.2795 -2.7362
rtoes 4.35284
lfemur 3.13123 -2.11924 -23.2721
ltibia 8.74379
lfoot -10.1714 6.3815
ltoes -12.8062
262
root -0.142859 17.9333 -0.396451 2.84335 -10.3964 2.51507
lowerback -0.924678 -1.73365 -4.5951
upperback -1.96602 -2.28925 2.92128
thorax -1.20943 -1.06707 5.60357
lowerneck -33.2197 -0.972271 -8.12285
upperneck 2.00576 1.06372 6.60714
head 5.45797 0.988507 3.63344
rclavicle 3.11098e-014 3.18055e-015
rhumerus -33.3402 -1.21337 -79.5168
rradius 29.4548
rwrist 20.5957
rhand -17.8033 8.44565
rfingers 7.12502
rthumb 8.46012 -21.3649
lclavicle 3.11098e-014 3.18055e-015
lhumerus 57.0454 9.86157 48.8387
lradius 99.2197
lwrist -17.3504
lhand -47.5729 20.0769
lfingers 7.12502
lthumb -20.258 49.0405
rfemur -7.91268 8.78198 13.8341
rtibia 26.5341
rfoot -18.2769 -2.78415
rtoes 4.38844
lfemur 3.1081 -2.11194 -23.2031
ltibia 8.73557
lfoot -10.147 6.37633
ltoes -12.6761
263
root -0.1437 17.9329 -0.394209 2.8579 -10.4318 2.51355
lowerback -0.939048 -1.73029 -4.59188
upperback -1.98956 -2.28435 2.91663
thorax -1.22663 -1.06362 5.59695
lowerneck -33.0655 -0.954676 -8.07734
upperneck 1.86077 1.06875 6.53466
head 5.39028 0.98376 3.59818
rclavicle -1.58903e-014 1.11319e-014
rhumerus -33.3677 -1.10308 -79.5516
rradius 29.4833
rwrist 20.5298
rhand -17.8053 8.45406
rfingers 7.12502
rthumb 8.45827 -21.3566
lclavicle -1.58903e-014 1.11319e-014
lhumerus 57.0355 9.90525 48.879
lradius 99.2011
lwrist -17.5894
lhand -47.4389 20.0994
lfingers 7.12502
lthumb -20.1292 49.0765
rfemur -7.92887 8.80705 13.8375
rtibia 26.5242
rfoot -18.2382 -2.80341
rtoes 4.34296
lfemur 3.12183 -2.07672 -23.2064
ltibia 8.70331
lfoot -10.1111 6.39332
ltoes -12.8541
264
root -0.143478 17.9324 -0.390177 2.85465 -10.4285 2.55886
lowerback -0.950334 -1.7342 -4.63251
upperback -2.01337 -2.28935 2.905
thorax -1.24328 -1.06459 5.60803
lowerneck -33.083 -0.944118 -8.03454
upperneck 1.93081 1.07234 6.47423
head 5.41543 0.98013 3.57232
rclavicle 1.19892e-014 3.18055e-015
rhumerus -33.4247 -1.04479 -79.5491
rradius 29.5775
rwrist 20.512
rhand -17.645 8.40482
rfingers 7.12502
rthumb 8.61296 -21.3995
lclavicle 1.19892e-014 3.18055e-015
lhumerus 57.0317 9.91856 48.9374
lradius 99.1743
lwrist -17.7736
lhand -47.3699 20.0109
lfingers 7.12502
lthumb -20.0628 48.995
rfemur -7.91677 8.74823 13.7786
rtibia 26.5232
rfoot -18.2457 -2.74741
rtoes 4.25085
lfemur 3.16143 -2.08113 -23.2725
ltibia 8.65031
lfoot -10.0567 6.40233
ltoes -13.1148
265
root -0.143677 17.9319 -0.386056 2.84281 -10.4189 2.59774
lowerback -0.970315 -1.73217 -4.66658
upperback -2.01415 -2.28608 2.88009
thorax -1.23307 -1.06292 5.60068
lowerneck -33.099 -0.951603 -8.0268
upperneck 1.9419 1.05663 6.51003
head 5.42258 0.976179 3.58178
rclavicle 2.98053e-014 -5.56597e-015
rhumerus -33.4273 -1.15158 -79.5203
rradius 29.6078
rwrist 20.6044
rhand -17.668 8.40178
rfingers 7.12502
rthumb 8.59073 -21.4034
lclavicle 2.98053e-014 -5.56597e-015
lhumerus 57.0478 9.88511 48.9613
lradius 99.1728
lwrist -17.8123
lhand -47.3101 20.0668
lfingers 7.12502
lthumb -20.0054 49.057
rfemur -7.89286 8.70497 13.7319
rtibia 26.5348
rfoot -18.2609 -2.70539
rtoes 4.19468
lfemur 3.23196 -2.09124 -23.3264
ltibia 8.57635
lfoot -10.0531 6.38751
ltoes -13.0278
266
root -0.144338 17.9309 -0.38132 2.82724 -10.4257 2.64863
lowerback -0.991018 -1.69478 -4.71215
upperback -1.99613 -2.23553 2.83602
thorax -1.20955 -1.03831 5.57981
lowerneck -33.2441 -0.964351 -7.86784
upperneck 2.04274 1.00552 6.34654
head 5.47797 0.939579 3.49759
rclavicle -2.17545e-014 1.66979e-014
rhumerus -33.4133 -1.30845 -79.4807
rradius 29.6236
rwrist 20.6691
rhand -17.7763 8.40634
rfingers 7.12502
rthumb 8.48621 -21.4031
lclavicle -2.17545e-014 1.66979e-014
lhumerus 57.1591 9.8228 49.0167
lradius 99.2009
lwrist -17.7667
lhand -47.1899 20.1533
lfingers 7.12502
lthumb -19.8899 49.1555
rfemur -7.87042 8.70319 13.6719
rtibia 26.5432
rfoot -18.2994 -2.65038
rtoes 4.45635
lfemur 3.2949 -2.0858 -23.3846
ltibia 8.49674
lfoot -10.0413 6.37678
ltoes -13.1903
267
root -0.145089 17.9317 -0.378656 2.82315 -10.465 2.68611
lowerback -0.997482 -1.65544 -4.74852
upperback -1.99662 -2.18295 2.80139
thorax -1.21339 -1.01149 5.56453
lowerneck -33.383 -0.979211 -7.7534
upperneck 2.20058 0.963132 6.21979
head 5.55083 0.90948 3.43451
rclavicle -6.28657e-015 -4.77083e-015
rhumerus -33.3705 -1.40254 -79.4619
rradius 29.5298
rwrist 20.7076
rhand -17.8753 8.41644
rfingers 7.12502
rthumb 8.39068 -21.3969
lclavicle -6.28657e-015 -4.77083e-015
lhumerus 57.2429 9.78261 49.0537
lradius 99.1905
lwrist -17.695
lhand -47.2406 20.013
lfingers 7.12502
lthumb -19.9386 49.0101
rfemur -7.88202 8.71007 13.6276
rtibia 26.5572
rfoot -18.2824 -2.63357
rtoes 4.45249
lfemur 3.34117 -2.04788 -23.4271
ltibia 8.42664
lfoot -10.0158 6.37923
ltoes -13.0528
268
root -0.145273 17.933 -0.378119 2.83079 -10.4727 2.667
lowerback -0.988817 -1.65964 -4.73251
upperback -2.01503 -2.18897 2.8058
thorax -1.23687 -1.01355 5.56068
lowerneck -33.2643 -0.984951 -7.89684
upperneck 2.13369 0.981679 6.42182
head 5.51282 0.934643 3.5263
rclavicle 5.31749e-015 6.36111e-015
rhumerus -33.3488 -1.36654 -79.4563
rradius 29.465
rwrist 20.7212
rhand -17.9976 8.51206
rfingers 7.12502
rthumb 8.27263 -21.306
lclavicle 5.31749e-015 6.36111e-015
lhumerus 57.2408 9.81676 49.0946
lradius 99.1515
lwrist -17.9797
lhand -47.1978 20.3361
lfingers 7.12502
lthumb -19.8975 49.3375
rfemur -7.89275 8.69778 13.648
rtibia 26.5666
rfoot -18.2638 -2.62592
rtoes 4.48453
lfemur 3.355 -2.03889 -23.4133
ltibia 8.4127
lfoot -10.0185 6.41468
ltoes -12.948
269
root -0.145283 17.9315 -0.375978 2.81491 -10.4736 2.70084
lowerback -0.999129 -1.6601 -4.75243
upperback -2.00764 -2.18935 2.77789
thorax -1.22376 -1.0142 5.54225
lowerneck -33.1836 -0.98638 -7.97039
upperneck 2.04095 0.990602 6.54651
head 5.47161 0.949368 3.57954
rclavicle -1.01007e-014 7.95139e-016
rhumerus -33.3592 -1.29383 -79.5064
rradius 29.5298
rwrist 20.6112
rhand -18.2236 8.43844
rfingers 7.12502
rthumb 8.05451 -21.3881
lclavicle -1.01007e-014 7.95139e-016
lhumerus 57.2699 9.80282 49.0917
lradius 99.151
lwrist -18.0882
lhand -47.0976 20.8706
lfingers 7.12502
lthumb -19.8011 49.882
rfemur -7.89102 8.67519 13.6143
rtibia 26.5783
rfoot -18.2568 -2.61529
rtoes 4.41782
lfemur 3.37681 -2.03811 -23.4595
ltibia 8.4524
lfoot -10.0215 6.43929
ltoes -13.4021
270
root -0.145552 17.9312 -0.375308 2.80842 -10.5086 2.67676
lowerback -0.991578 -1.67131 -4.73866
upperback -2.00622 -2.20453 2.79221
thorax -1.22447 -1.02194 5.5495
lowerneck -33.1882 -0.952926 -7.90092
upperneck 2.04114 1.01777 6.44814
head 5.47012 0.954029 3.53845
rclavicle 2.52581e-014 -2.22639e-014
rhumerus -33.335 -1.24403 -79.5137
rradius 29.5248
rwrist 20.6698
rhand -18.2148 8.42475
rfingers 7.12502
rthumb 8.06305 -21.4014
lclavicle 2.52581e-014 -2.22639e-014
lhumerus 57.2023 9.82358 49.0131
lradius 99.1483
lwrist -17.7141
lhand -47.1538 20.6201
lfingers 7.12502
lthumb -19.8551 49.6259
rfemur -7.89628 8.70786 13.642
rtibia 26.5917
rfoot -18.2797 -2.6221
rtoes 4.25721
lfemur 3.39978 -2.00081 -23.4395
ltibia 8.48659
lfoot -10.003 6.44201
ltoes -13.9694
271
root -0.146773 17.9309 -0.375699 2.81388 -10.5373 2.60024
lowerback -0.978091 -1.68165 -4.69089
upperback -2.01208 -2.21862 2.83313
thorax -1.23634 -1.02893 5.56562
lowerneck -33.1825 -0.91624 -7.84234
upperneck 2.04157 1.05599 6.32075
head 5.46642 0.961017 3.49038
rclavicle 2.86995e-015 1.11319e-014
rhumerus -33.2894 -1.1573 -79.51
rradius 29.4598
rwrist 20.7142
rhand -18.2241 8.54374
rfingers 7.12502
rthumb 8.05401 -21.2828
lclavicle 2.86995e-015 1.11319e-014
lhumerus 57.0965 9.84781 48.9737
lradius 99.1919
lwrist -17.5956
lhand -47.1833 20.3184
lfingers 7.12502
lthumb -19.8835 49.3212
rfemur -7.90536 8.73117 13.7313
rtibia 26.6094
rfoot -18.28 -2.61614
rtoes 3.92356
lfemur 3.40687 -1.96824 -23.3491
ltibia 8.49578
lfoot -9.97322 6.45676
ltoes -13.9916
